Coordinates
version=1
nRows=17
nColumns=40
inDegrees=yes
endheader
time	pelvis_tilt	pelvis_list	pelvis_rotation	pelvis_tx	pelvis_ty	pelvis_tz	hip_flexion_r	hip_adduction_r	hip_rotation_r	knee_angle_r	knee_angle_r_beta	ankle_angle_r	subtalar_angle_r	mtp_angle_r	hip_flexion_l	hip_adduction_l	hip_rotation_l	knee_angle_l	knee_angle_l_beta	ankle_angle_l	subtalar_angle_l	mtp_angle_l	lumbar_extension	lumbar_bending	lumbar_rotation	arm_flex_r	arm_add_r	arm_rot_r	elbow_flex_r	pro_sup_r	wrist_flex_r	wrist_dev_r	arm_flex_l	arm_add_l	arm_rot_l	elbow_flex_l	pro_sup_l	wrist_flex_l	wrist_dev_l
1760624784.13659406	      7.39955192	     -1.38419737	      0.50174583	      0.17015987	      0.88528612	     -0.00024404	     80.00000000	     -7.00000000	      0.00000000	     80.00000000	      1.39626340	      0.00000000	      0.00000000	      0.00000000	     80.00000000	     -7.00000000	      0.00000000	     80.00000000	      1.39626340	      0.00000000	      0.00000000	      0.00000000	    -14.89479104	     -0.53723571	      2.57313820	      3.69989177	     -6.74724844	     15.46487105	      0.00000000	      0.00000000	    -21.77434140	    -14.13298091	      5.40970357	     -5.75620194	     17.14656092	      0.00000000	      8.93449682	    -13.83118366	     -3.82283661
1760624784.14659405	      7.40343408	     -1.39043672	      0.50235833	      0.17014202	      0.88529308	     -0.00022055	     80.00000000	     -7.00000000	      0.00000000	     80.00000000	      1.39626340	      0.00000000	      0.00000000	      0.00000000	     80.00000000	     -7.00000000	      0.00000000	     80.00000000	      1.39626340	      0.00000000	      0.00000000	      0.00000000	    -14.89123319	     -0.54600932	      2.57299804	      3.69891006	     -6.75361209	     15.46560368	      0.00000000	      0.00000000	    -21.77413094	    -14.13255785	      5.40949955	     -5.74851118	     17.14590747	      0.00000000	      8.93395353	    -13.83046237	     -3.82327542
1760624784.15659404	      7.40376080	     -1.39082043	      0.50326289	      0.17009556	      0.88533831	     -0.00017865	     80.00000000	     -7.00000000	      0.00000000	     80.00000000	      1.39626340	      0.00000000	      0.00000000	      0.00000000	     80.00000000	     -7.00000000	      0.00000000	     80.00000000	      1.39626340	      0.00000000	      0.00000000	      0.00000000	    -14.89057403	     -0.54745057	      2.57348946	      3.69859824	     -6.75509699	     15.46574665	      0.00000000	      0.00000000	    -21.77406976	    -14.13243815	      5.40896961	     -5.74676847	     17.14571272	      0.00000000	      8.93383310	    -13.83028131	     -3.82338668
1760624784.16659403	      7.40428004	     -1.39417070	      0.50391076	      0.17008981	      0.88527595	     -0.00017710	     80.00000000	     -7.00000000	      0.00000000	     80.00000000	      1.39626340	      0.00000000	      0.00000000	      0.00000000	     80.00000000	     -7.00000000	      0.00000000	     80.00000000	      1.39626340	      0.00000000	      0.00000000	      0.00000000	    -14.89025983	     -0.55190229	      2.57330772	      3.69772801	     -6.75619354	     15.46590588	      0.00000000	      0.00000000	    -21.77398540	    -14.13225511	      5.40925081	     -5.74315715	     17.14547840	      0.00000000	      8.93364826	    -13.82994975	     -3.82352197
1760624784.17659402	      7.40421689	     -1.39537195	      0.50418277	      0.17008487	      0.88526365	     -0.00016440	     80.00000000	     -7.00000000	      0.00000000	     80.00000000	      1.39626340	      0.00000000	      0.00000000	      0.00000000	     80.00000000	     -7.00000000	      0.00000000	     80.00000000	      1.39626340	      0.00000000	      0.00000000	      0.00000000	    -14.89036882	     -0.55350939	      2.57318768	      3.69719827	     -6.75652541	     15.46593887	      0.00000000	      0.00000000	    -21.77396534	    -14.13219587	      5.40925742	     -5.74176283	     17.14538899	      0.00000000	      8.93358211	    -13.82983832	     -3.82355688
1760624784.18659401	      7.40655987	     -1.40378600	      0.50467886	      0.17006735	      0.88525745	     -0.00013438	     80.00000000	     -7.00000000	      0.00000000	     80.00000000	      1.39626340	      0.00000000	      0.00000000	      0.00000000	     80.00000000	     -7.00000000	      0.00000000	     80.00000000	      1.39626340	      0.00000000	      0.00000000	      0.00000000	    -14.88746634	     -0.56646162	      2.57145649	      3.69096368	     -6.75625504	     15.46621280	      0.00000000	      0.00000000	    -21.77364742	    -14.13130426	      5.41377191	     -5.72791066	     17.14475986	      0.00000000	      8.93309475	    -13.82810830	     -3.82425851
1760624784.19659400	      7.40822093	     -1.40478423	      0.50459030	      0.17007871	      0.88519600	     -0.00014719	     80.00000000	     -7.00000000	      0.00000000	     80.00000000	      1.39626340	      0.00000000	      0.00000000	      0.00000000	     80.00000000	     -7.00000000	      0.00000000	     80.00000000	      1.39626340	      0.00000000	      0.00000000	      0.00000000	    -14.88637090	     -0.56813944	      2.57148393	      3.68985027	     -6.75598632	     15.46626270	      0.00000000	      0.00000000	    -21.77358129	    -14.13112472	      5.41434560	     -5.72585121	     17.14462986	      0.00000000	      8.93300326	    -13.82779410	     -3.82439458
1760624784.20659399	      7.40895663	     -1.40533584	      0.50479617	      0.17007024	      0.88519336	     -0.00013398	     80.00000000	     -7.00000000	      0.00000000	     80.00000000	      1.39626340	      0.00000000	      0.00000000	      0.00000000	     80.00000000	     -7.00000000	      0.00000000	     80.00000000	      1.39626340	      0.00000000	      0.00000000	      0.00000000	    -14.88577558	     -0.56908596	      2.57154509	      3.68918529	     -6.75579408	     15.46625696	      0.00000000	      0.00000000	    -21.77356329	    -14.13104870	      5.41443019	     -5.72482569	     17.14455914	      0.00000000	      8.93295694	    -13.82766623	     -3.82444894
1760624784.21659398	      7.41101191	     -1.40769622	      0.50561674	      0.17000388	      0.88520342	     -0.00011519	     80.00000000	     -7.00000000	      0.00000000	     80.00000000	      1.39626340	      0.00000000	      0.00000000	      0.00000000	     80.00000000	     -7.00000000	      0.00000000	     80.00000000	      1.39626340	      0.00000000	      0.00000000	      0.00000000	    -14.88386161	     -0.57263926	      2.57158259	      3.68738049	     -6.75496209	     15.46624823	      0.00000000	      0.00000000	    -21.77351034	    -14.13083242	      5.41513383	     -5.72132644	     17.14437906	      0.00000000	      8.93286076	    -13.82728339	     -3.82459442
1760624784.22659397	      7.41685081	     -1.41408670	      0.50768810	      0.17005191	      0.88515264	     -0.00007139	     80.00000000	     -7.00000000	      0.00000000	     80.00000000	      1.39626340	      0.00000000	      0.00000000	      0.00000000	     80.00000000	     -7.00000000	      0.00000000	     80.00000000	      1.39626340	      0.00000000	      0.00000000	      0.00000000	    -14.87780062	     -0.58591039	      2.57145866	      3.67727152	     -6.74658796	     15.46620273	      0.00000000	      0.00000000	    -21.77310572	    -14.12935248	      5.42380432	     -5.70766751	     17.14382494	      0.00000000	      8.93245814	    -13.82493105	     -3.82570946
1760624784.23659396	      7.41712774	     -1.41455813	      0.50790910	      0.17003397	      0.88512333	     -0.00010524	     80.00000000	     -7.00000000	      0.00000000	     80.00000000	      1.39626340	      0.00000000	      0.00000000	      0.00000000	     80.00000000	     -7.00000000	      0.00000000	     80.00000000	      1.39626340	      0.00000000	      0.00000000	      0.00000000	    -14.87777282	     -0.58669287	      2.57179186	      3.67665277	     -6.74594778	     15.46619215	      0.00000000	      0.00000000	    -21.77307667	    -14.12926224	      5.42374396	     -5.70761260	     17.14377692	      0.00000000	      8.93243226	    -13.82482592	     -3.82577563
1760624784.24659395	      7.41781134	     -1.41533096	      0.50824956	      0.17002842	      0.88509856	     -0.00010099	     80.00000000	     -7.00000000	      0.00000000	     80.00000000	      1.39626340	      0.00000000	      0.00000000	      0.00000000	     80.00000000	     -7.00000000	      0.00000000	     80.00000000	      1.39626340	      0.00000000	      0.00000000	      0.00000000	    -14.87727680	     -0.58791426	      2.57188629	      3.67608579	     -6.74558775	     15.46620900	      0.00000000	      0.00000000	    -21.77304973	    -14.12917779	      5.42428066	     -5.70705950	     17.14375790	      0.00000000	      8.93242146	    -13.82468929	     -3.82583516
1760624784.25659394	      7.42948955	     -1.42187712	      0.51012105	      0.17010708	      0.88503631	     -0.00005070	     80.00000000	     -7.00000000	      0.00000000	     80.00000000	      1.39626340	      0.00000000	      0.00000000	      0.00000000	     80.00000000	     -7.00000000	      0.00000000	     80.00000000	      1.39626340	      0.00000000	      0.00000000	      0.00000000	    -14.86794548	     -0.60112876	      2.57332531	      3.66411134	     -6.73775982	     15.46648772	      0.00000000	      0.00000000	    -21.77260497	    -14.12757876	      5.43481095	     -5.70175093	     17.14369990	      0.00000000	      8.93247493	    -13.82228461	     -3.82710270
1760624784.26659393	      7.42962715	     -1.42261811	      0.50997241	      0.17011801	      0.88503502	     -0.00009756	     80.00000000	     -7.00000000	      0.00000000	     80.00000000	      1.39626340	      0.00000000	      0.00000000	      0.00000000	     80.00000000	     -7.00000000	      0.00000000	     80.00000000	      1.39626340	      0.00000000	      0.00000000	      0.00000000	    -14.86788625	     -0.60201411	      2.57342274	      3.66341393	     -6.73701411	     15.46649185	      0.00000000	      0.00000000	    -21.77258011	    -14.12748050	      5.43542422	     -5.70215744	     17.14372921	      0.00000000	      8.93249995	    -13.82215071	     -3.82719094
1760624784.27659392	      7.42985438	     -1.42364793	      0.50988672	      0.17012087	      0.88502983	     -0.00009959	     80.00000000	     -7.00000000	      0.00000000	     80.00000000	      1.39626340	      0.00000000	      0.00000000	      0.00000000	     80.00000000	     -7.00000000	      0.00000000	     80.00000000	      1.39626340	      0.00000000	      0.00000000	      0.00000000	    -14.86768498	     -0.60337400	      2.57307456	      3.66265781	     -6.73647265	     15.46651004	      0.00000000	      0.00000000	    -21.77255792	    -14.12738620	      5.43664814	     -5.70218294	     17.14378902	      0.00000000	      8.93253998	    -13.82199416	     -3.82727881
1760624784.28659391	      7.42862594	     -1.41342462	      0.55061653	      0.17007025	      0.88507259	      0.00013850	     80.00000000	     -7.00000000	      0.00000000	     80.00000000	      1.39626340	      0.00000000	      0.00000000	      0.00000000	     80.00000000	     -7.00000000	      0.00000000	     80.00000000	      1.39626340	      0.00000000	      0.00000000	      0.00000000	    -14.86644965	     -0.66036683	      2.60934832	      3.62034782	     -6.66617584	     15.47292242	      0.00000000	      0.00000000	    -21.76819627	    -14.11493634	      5.51370980	     -5.74891345	     17.14736868	      0.00000000	      8.93750311	    -13.80411699	     -3.83940058
1760624784.29659390	      7.43028349	     -1.41505852	      0.54917395	      0.17008477	      0.88500911	      0.00011637	     80.00000000	     -7.00000000	      0.00000000	     80.00000000	      1.39626340	      0.00000000	      0.00000000	      0.00000000	     80.00000000	     -7.00000000	      0.00000000	     80.00000000	      1.39626340	      0.00000000	      0.00000000	      0.00000000	    -14.86525747	     -0.66274266	      2.60767368	      3.61961187	     -6.66722273	     15.47314783	      0.00000000	      0.00000000	    -21.76809843	    -14.11475507	      5.51644450	     -5.74880036	     17.14749834	      0.00000000	      8.93758612	    -13.80376584	     -3.83959979
